<?xml version="1.0" standalone="no"?>
<!DOCTYPE svg PUBLIC "-//W3C//DTD SVG 20010904//EN"
 "http://www.w3.org/TR/2001/REC-SVG-20010904/DTD/svg10.dtd">
<svg version="1.0" xmlns="http://www.w3.org/2000/svg"
 width="600.000000pt" height="600.000000pt" viewBox="0 0 600.000000 600.000000"
 preserveAspectRatio="xMidYMid meet">
<metadata>
Created by potrace 1.16, written by Peter Selinger 2001-2019
</metadata>
<g transform="translate(0.000000,600.000000) scale(0.100000,-0.100000)"
fill="#000000" stroke="none">
<path d="M3675 5074 c-352 -234 -647 -429 -655 -434 -19 -11 -43 7 285 -208
l264 -174 343 230 c278 185 347 236 363 265 11 20 26 37 33 37 9 0 12 78 12
355 0 195 -1 355 -2 354 -2 0 -291 -192 -643 -425z"/>
<path d="M2239 4125 c-129 -84 -305 -201 -392 -260 l-158 -107 43 -28 c59 -40
78 -56 78 -67 0 -21 79 -81 320 -238 278 -182 302 -201 296 -224 -4 -12 65
-61 249 -181 140 -91 253 -170 250 -176 -2 -7 14 -15 42 -19 24 -3 63 -13 86
-21 53 -19 138 -73 132 -84 -3 -5 0 -12 6 -16 8 -4 9 -3 5 4 -15 25 13 9 161
-89 84 -56 150 -106 146 -112 -4 -6 -1 -7 6 -3 13 9 354 -211 347 -223 -3 -4
3 -7 12 -7 9 0 93 -51 186 -112 138 -92 175 -112 205 -112 21 0 42 -5 48 -11
18 -18 22 79 15 390 l-7 294 -313 206 c-775 510 -993 652 -1072 704 -47 30
-98 66 -114 79 l-29 25 74 49 c66 44 100 61 177 90 20 8 -11 32 -259 199 -154
105 -286 193 -293 197 -8 4 -107 -55 -247 -147z"/>
<path d="M2160 1628 c-1 -99 -3 -120 -13 -108 -58 74 -174 64 -216 -19 -25
-48 -28 -148 -7 -189 30 -57 63 -77 126 -77 48 0 63 4 84 24 26 24 26 24 26 3
0 -19 5 -22 45 -22 l45 0 -2 253 -3 252 -42 3 -43 3 0 -123z m-21 -164 c13
-16 21 -41 21 -64 0 -55 -31 -90 -80 -90 -71 0 -103 78 -60 148 17 27 25 32
59 32 31 0 44 -6 60 -26z"/>
<path d="M4130 1495 l0 -255 45 0 45 0 0 255 0 255 -45 0 -45 0 0 -255z"/>
<path d="M4720 1496 l0 -256 45 0 c40 0 45 3 45 23 0 12 4 17 8 11 31 -45 115
-57 168 -25 64 39 91 154 56 234 -39 87 -130 111 -205 54 l-32 -25 0 117 0
116 -42 3 -43 3 0 -255z m217 -28 c29 -33 36 -63 23 -103 -13 -41 -35 -55 -83
-55 -49 0 -72 29 -72 92 0 40 5 53 24 69 32 26 82 25 108 -3z"/>
<path d="M1165 1721 c-73 -19 -142 -79 -171 -147 -17 -40 -18 -138 -3 -185 41
-121 201 -190 338 -144 l51 17 0 48 0 49 -56 -26 c-122 -56 -233 6 -241 134
-6 101 50 170 148 179 44 5 62 1 101 -18 l46 -24 4 44 c3 43 2 46 -32 60 -41
17 -142 24 -185 13z"/>
<path d="M3829 1724 c-57 -10 -131 -67 -163 -124 -26 -47 -30 -65 -30 -125 0
-83 24 -137 81 -184 71 -59 170 -76 271 -46 l52 16 0 49 c0 28 -2 50 -4 50 -3
0 -22 -10 -43 -22 -53 -32 -145 -32 -189 -1 -66 48 -86 155 -43 232 45 80 159
104 245 51 l34 -22 0 50 c0 47 -2 51 -32 62 -37 13 -140 21 -179 14z"/>
<path d="M1560 1548 c-66 -34 -85 -66 -85 -146 0 -54 4 -73 23 -100 50 -70
150 -91 232 -49 63 31 90 76 90 147 0 71 -26 114 -89 147 -56 29 -114 30 -171
1z m148 -90 c50 -48 11 -138 -61 -138 -23 0 -41 8 -60 28 -78 82 38 187 121
110z"/>
<path d="M2653 1544 c-42 -24 -43 -25 -43 -5 0 18 -6 21 -45 21 l-45 0 0 -160
0 -160 45 0 45 0 0 95 c0 134 21 168 98 157 33 -5 42 -38 42 -153 l0 -99 45 0
45 0 0 119 c0 65 -5 132 -11 150 -22 62 -104 79 -176 35z"/>
<path d="M3002 1550 c-66 -41 -91 -153 -53 -237 23 -50 57 -74 114 -80 34 -4
50 0 80 21 l37 25 0 -43 c0 -29 -6 -48 -18 -59 -23 -21 -85 -22 -102 -2 -8 10
-30 15 -61 15 -54 0 -53 1 -38 -34 38 -83 254 -80 296 5 9 16 13 83 13 212 l0
187 -45 0 c-39 0 -45 -3 -45 -20 0 -20 0 -20 -29 1 -42 31 -108 35 -149 9z
m156 -80 c59 -55 27 -160 -49 -160 -44 0 -66 15 -79 55 -13 41 1 99 28 115 28
16 77 11 100 -10z"/>
<path d="M2330 1400 l0 -160 45 0 45 0 0 160 0 160 -45 0 -45 0 0 -160z"/>
<path d="M4302 1443 c4 -141 17 -173 78 -197 84 -33 180 -13 224 47 18 24 22
46 25 148 l3 119 -45 0 -45 0 -4 -104 c-3 -119 -17 -146 -73 -146 -56 0 -70
27 -73 146 l-4 104 -45 0 -45 0 4 -117z"/>
<path d="M3620 815 c0 -114 4 -205 9 -205 5 0 11 38 12 85 5 99 23 129 81 127
48 -1 58 -23 58 -124 0 -74 3 -88 16 -88 14 0 15 14 12 101 -3 92 -5 103 -27
120 -31 25 -82 24 -115 -2 l-26 -20 0 105 c0 64 -4 106 -10 106 -6 0 -10 -75
-10 -205z"/>
<path d="M2440 981 c-114 -60 -133 -243 -35 -330 75 -65 185 -66 259 -1 31 28
56 84 56 129 0 20 -5 21 -85 21 -69 0 -85 -3 -85 -15 0 -12 14 -15 70 -15 l70
0 -6 -27 c-9 -41 -36 -76 -75 -95 -95 -49 -218 16 -236 124 -11 71 37 167 96
190 36 13 104 12 133 -2 12 -7 35 -24 50 -38 24 -22 28 -23 34 -8 24 63 -159
114 -246 67z"/>
<path d="M1730 800 c0 -183 1 -190 20 -190 19 0 20 7 20 190 0 183 -1 190 -20
190 -19 0 -20 -7 -20 -190z"/>
<path d="M1880 981 c0 -6 24 -11 53 -13 l52 -3 3 -177 c2 -148 5 -178 17 -178
12 0 15 30 17 178 l3 177 53 3 c28 2 52 7 52 13 0 5 -53 9 -125 9 -72 0 -125
-4 -125 -9z"/>
<path d="M3383 815 c-34 -34 -35 -38 -31 -95 5 -69 31 -106 83 -116 34 -6 89
15 98 38 3 7 6 3 6 -9 1 -13 7 -23 16 -23 12 0 15 19 15 115 0 96 -3 115 -15
115 -8 0 -15 -7 -15 -16 0 -13 -5 -12 -26 5 -42 33 -89 28 -131 -14z m136 -21
c14 -18 21 -41 21 -71 0 -57 -33 -93 -85 -93 -29 0 -39 6 -55 33 -44 72 -12
157 60 157 30 0 43 -6 59 -26z"/>
<path d="M3898 830 c-70 -55 -58 -192 20 -221 32 -12 85 -4 102 16 16 19 30
19 30 0 0 -8 5 -15 10 -15 6 0 10 45 10 115 0 70 -4 115 -10 115 -5 0 -10 -7
-10 -15 0 -8 -4 -15 -10 -15 -5 0 -10 4 -10 8 0 13 -47 32 -79 32 -16 0 -40
-9 -53 -20z m119 -32 c31 -29 32 -104 2 -142 -42 -54 -121 -24 -135 51 -7 38
10 89 35 103 28 16 74 11 98 -12z"/>
<path d="M2770 763 c0 -101 20 -144 72 -157 43 -11 93 6 109 36 6 11 13 59 16
109 5 78 4 89 -11 89 -13 0 -16 -12 -16 -69 0 -114 -23 -149 -91 -139 -34 5
-49 43 -49 131 0 62 -3 77 -15 77 -12 0 -15 -15 -15 -77z"/>
<path d="M3002 828 c39 -112 83 -217 88 -211 4 5 20 40 35 78 16 39 31 73 35
77 3 4 21 -31 40 -77 18 -47 37 -82 40 -78 13 15 83 214 77 219 -12 13 -26 -9
-47 -74 -13 -37 -26 -71 -30 -75 -4 -5 -23 28 -41 72 -18 45 -36 78 -40 74 -4
-5 -19 -37 -34 -73 -15 -36 -30 -68 -34 -73 -4 -4 -20 29 -35 73 -18 52 -33
80 -43 80 -8 0 -13 -6 -11 -12z"/>
</g>
</svg>
